<svg aria-hidden="true" style="position: absolute; width: 0; height: 0; overflow: hidden;" version="1.1" xmlns="http://www.w3.org/2000/svg" xmlns:xlink="http://www.w3.org/1999/xlink">
  <defs>

    <symbol id="icon-envelope" viewBox="0 0 512 512">
      <path d="M512 202.857v226.857c0 25.143-20.572 45.714-45.714 45.714h-420.572c-25.143 0-45.715-20.572-45.715-45.714v-226.857c8.572 9.429 18.285 17.715 28.857 24.857 47.428 32.286 95.428 64.572 142 98.572 24 17.714 53.714 39.428 84.857 39.428h0.571c31.143 0 60.857-21.714 84.857-39.428 46.572-33.714 94.572-66.286 142.286-98.572 10.286-7.143 20-15.428 28.572-24.857zM512 118.857c0 32-23.714 60.857-48.857 78.285-44.572 30.857-89.428 61.714-133.714 92.857-18.572 12.857-50 39.143-73.143 39.143h-0.571c-23.143 0-54.571-26.286-73.143-39.143-44.286-31.143-89.143-62-133.429-92.857-20.285-13.714-49.143-46-49.143-72 0-28 15.143-52 45.715-52h420.572c24.857 0 45.715 20.572 45.715 45.715z"></path>
    </symbol>

    <symbol id="icon-key" viewBox="0 0 481 512">
      <path d="M237.714 146.286c0-30.285-24.572-54.857-54.857-54.857s-54.857 24.572-54.857 54.857c0 8.286 2 16.286 5.428 23.714-7.428-3.429-15.428-5.428-23.715-5.428-30.285 0-54.857 24.572-54.857 54.857s24.572 54.857 54.857 54.857 54.857-24.572 54.857-54.857c0-8.286-2-16.285-5.428-23.715 7.428 3.429 15.428 5.428 23.714 5.428 30.286 0 54.857-24.572 54.857-54.857zM480.857 347.428c0 6.572-26.286 32.857-32.857 32.857-7.428 0-30.572-26.857-36.572-32.857l-27.428 27.428 62.857 62.857c5.143 5.143 8 12.286 8 19.428 0 16-18.286 34.286-34.286 34.286-7.143 0-14.286-2.857-19.428-8l-191.714-191.714c-30 22.286-66.572 37.428-104.285 37.428-62.285 0-105.143-43.143-105.143-105.143 0-93.715 93.715-187.429 187.428-187.429 62 0 105.143 42.857 105.143 105.143 0 37.715-15.143 74.285-37.428 104.285l101.428 101.428 27.428-27.428c-6-6-32.857-29.143-32.857-36.572 0-6.572 26.286-32.857 32.857-32.857 2.286 0 4.857 1.143 6.572 2.857 10.572 10.572 90.286 85.714 90.286 94z"></path>
    </symbol>

    <symbol id="icon-birthday-cake" viewBox="0 0 512 512">
      <path d="M512 402.286v109.714h-512v-109.714c28 0 42.857-12.572 54.572-22.572 9.715-8.572 16.285-14 30.857-14s20.857 5.428 30.857 14c11.715 10 26.285 22.572 54.572 22.572 28 0 42.571-12.572 54.571-22.572 9.714-8.572 16-14 30.572-14s21.143 5.428 30.857 14c11.714 10 26.572 22.572 54.572 22.572s42.857-12.572 54.572-22.572c9.714-8.572 16.286-14 30.857-14 14.286 0 20.857 5.428 30.572 14 11.714 10 26.572 22.572 54.572 22.572zM512 310.857v54.857c-14.572 0-20.857-5.428-30.857-14-11.714-10-26.286-22.572-54.286-22.572-28.286 0-42.857 12.572-54.572 22.572-10 8.572-16.286 14-30.857 14s-21.143-5.428-30.857-14c-11.714-10-26.286-22.572-54.572-22.572-28 0-42.572 12.572-54.572 22.572-9.714 8.572-16 14-30.572 14s-21.143-5.428-30.857-14c-11.714-10-26.572-22.572-54.572-22.572-28.285 0-42.857 12.572-54.572 22.572-9.715 8.572-16.285 14-30.857 14v-54.857c0-30.286 24.572-54.857 54.857-54.857h18.285v-128h73.143v128h73.143v-128h73.143v128h73.143v-128h73.143v128h18.286c30.286 0 54.857 24.572 54.857 54.857zM146.286 64c0 30.285-16.286 45.715-36.572 45.715s-36.572-16.285-36.572-36.572c0-35.428 36.572-26.285 36.572-73.143 13.715 0 36.572 33.715 36.572 64zM292.572 64c0 30.285-16.286 45.715-36.572 45.715s-36.572-16.285-36.572-36.572c0-35.428 36.572-26.285 36.572-73.143 13.714 0 36.572 33.715 36.572 64zM438.857 64c0 30.285-16.286 45.715-36.572 45.715s-36.572-16.285-36.572-36.572c0-35.428 36.572-26.285 36.572-73.143 13.714 0 36.572 33.715 36.572 64z"></path>
    </symbol>

    <symbol id="icon-phone" viewBox="0 0 512 512">
      <path d="M352 320c-32 32-32 64-64 64s-64-32-96-64-64-64-64-96 32-32 64-64-64-128-96-128-96 96-96 96c0 64 65.75 193.75 128 256s192 128 256 128c0 0 96-64 96-96s-96-128-128-96z"></path>
    </symbol>

    <symbol id="icon-address-book" viewBox="0 0 512 512">
      <path d="M96 0v512h384v-512h-384zM288 128.165c35.255 0 63.835 28.58 63.835 63.835s-28.58 63.835-63.835 63.835-63.835-28.58-63.835-63.835 28.58-63.835 63.835-63.835v0zM384 384h-192v-32c0-35.348 28.653-64 64-64v0h64c35.348 0 64 28.652 64 64v32z"></path>
      <path d="M32 32h48v96h-48v-96z"></path>
      <path d="M32 160h48v96h-48v-96z"></path>
      <path d="M32 288h48v96h-48v-96z"></path>
      <path d="M32 416h48v96h-48v-96z"></path>
    </symbol>

    <symbol id="icon-map" viewBox="0 0 512 512">
      <path d="M0 96l160-64v384l-160 64z"></path>
      <path d="M192 16l160 96v368l-160-80z"></path>
      <path d="M384 112l128-96v384l-128 96z"></path>
    </symbol>

    <symbol id="icon-facebook" viewBox="0 0 512 512">
      <path d="M304 96h80v-96h-80c-61.757 0-112 50.243-112 112v48h-64v96h64v256h96v-256h80l16-96h-96v-48c0-8.673 7.327-16 16-16z"></path>
    </symbol>

    <symbol id="icon-instagram" viewBox="0 0 512 512">
      <path d="M256 46.1c68.4 0 76.5 0.3 103.4 1.5 25 1.1 38.5 5.3 47.5 8.8 11.9 4.6 20.5 10.2 29.4 19.1 9 9 14.5 17.5 19.2 29.4 3.5 9 7.7 22.6 8.8 47.5 1.2 27 1.5 35.1 1.5 103.4s-0.3 76.5-1.5 103.4c-1.1 25-5.3 38.5-8.8 47.5-4.6 11.9-10.2 20.5-19.1 29.4-9 9-17.5 14.5-29.4 19.2-9 3.5-22.6 7.7-47.5 8.8-27 1.2-35.1 1.5-103.4 1.5s-76.5-0.3-103.4-1.5c-25-1.1-38.5-5.3-47.5-8.8-11.9-4.6-20.5-10.2-29.4-19.1-9-9-14.5-17.5-19.2-29.4-3.5-9-7.7-22.6-8.8-47.5-1.2-27-1.5-35.1-1.5-103.4s0.3-76.5 1.5-103.4c1.1-25 5.3-38.5 8.8-47.5 4.6-11.9 10.2-20.5 19.1-29.4 9-9 17.5-14.5 29.4-19.2 9-3.5 22.6-7.7 47.5-8.8 26.9-1.2 35-1.5 103.4-1.5zM256 0c-69.5 0-78.2 0.3-105.5 1.5-27.2 1.2-45.9 5.6-62.1 11.9-16.9 6.6-31.2 15.3-45.4 29.6-14.3 14.2-23 28.5-29.6 45.3-6.3 16.3-10.7 34.9-11.9 62.1-1.2 27.4-1.5 36.1-1.5 105.6s0.3 78.2 1.5 105.5c1.2 27.2 5.6 45.9 11.9 62.1 6.6 16.9 15.3 31.2 29.6 45.4 14.2 14.2 28.5 23 45.3 29.5 16.3 6.3 34.9 10.7 62.1 11.9 27.3 1.2 36 1.5 105.5 1.5s78.2-0.3 105.5-1.5c27.2-1.2 45.9-5.6 62.1-11.9 16.8-6.5 31.1-15.3 45.3-29.5s23-28.5 29.5-45.3c6.3-16.3 10.7-34.9 11.9-62.1 1.2-27.3 1.5-36 1.5-105.5s-0.3-78.2-1.5-105.5c-1.2-27.2-5.6-45.9-11.9-62.1-6.3-17-15-31.3-29.3-45.5-14.2-14.2-28.5-23-45.3-29.5-16.3-6.3-34.9-10.7-62.1-11.9-27.4-1.3-36.1-1.6-105.6-1.6v0z"></path>
      <path d="M256 124.5c-72.6 0-131.5 58.9-131.5 131.5s58.9 131.5 131.5 131.5 131.5-58.9 131.5-131.5c0-72.6-58.9-131.5-131.5-131.5zM256 341.3c-47.1 0-85.3-38.2-85.3-85.3s38.2-85.3 85.3-85.3c47.1 0 85.3 38.2 85.3 85.3s-38.2 85.3-85.3 85.3z"></path>
      <path d="M423.4 119.3c0 16.955-13.745 30.7-30.7 30.7s-30.7-13.745-30.7-30.7c0-16.955 13.745-30.7 30.7-30.7s30.7 13.745 30.7 30.7z"></path>
    </symbol>

    <symbol id="icon-twitter" viewBox="0 0 512 512">
      <path d="M512 113.2c-18.8 8.4-39.1 14-60.3 16.5 21.7-13 38.3-33.6 46.2-58.1-20.3 12-42.8 20.8-66.7 25.5-19.2-20.4-46.5-33.1-76.7-33.1-58 0-105 47-105 105 0 8.2 0.9 16.2 2.7 23.9-87.3-4.4-164.7-46.2-216.5-109.8-9 15.5-14.2 33.6-14.2 52.8 0 36.4 18.5 68.6 46.7 87.4-17.2-0.5-33.4-5.3-47.6-13.1 0 0.4 0 0.9 0 1.3 0 50.9 36.2 93.4 84.3 103-8.8 2.4-18.1 3.7-27.7 3.7-6.8 0-13.3-0.7-19.8-1.9 13.4 41.7 52.2 72.1 98.1 73-36 28.2-81.2 45-130.5 45-8.5 0-16.8-0.5-25.1-1.5 46.6 29.9 101.8 47.2 161.1 47.2 193.2 0 298.9-160.1 298.9-298.9 0-4.6-0.1-9.1-0.3-13.6 20.5-14.7 38.3-33.2 52.4-54.3z"></path>
    </symbol>
    
  </defs>
</svg>
